<svg version="1.1" id="prefix__prefix__Layer_1" xmlns="http://www.w3.org/2000/svg" x="0" y="0" width="512" height="512" xml:space="preserve"><style>.prefix__st2{fill:#fff;stroke:#000;stroke-width:.75;stroke-miterlimit:10}</style><path d="M31.6 268c0-3.8 2.4-7.1 6-8.2l9.9-3.3c34.6-11.4 70.2-17.5 106.1-18.2.9-2.6 3.4-4.6 6.3-4.6h53.3l37.1-14.3c.8-.3 1.6-.4 2.4-.4h215.9c3.7 0 6.7 3 6.7 6.7v1.1h8.4v-1.1a6.7 6.7 0 0113.4 0v84.5c0 1.8-.7 3.5-2 4.7-1.3 1.2-2.9 2-4.7 2-3.7 0-6.7-3-6.7-6.7v-1.1h-8.4v1.1c0 1.8-.7 3.5-2 4.7-1.3 1.3-2.9 2-4.7 2H252.8c-.8 0-1.6-.2-2.4-.4l-37.1-14.3H160c-1.8 0-3.5-.7-4.7-2-.7-.7-1.3-1.6-1.6-2.6-35.9-.7-71.5-6.8-106.1-18.2l-9.9-3.3c-3.7-1-6.1-4.4-6.1-8.1zm451.8 27.8v-55.6h-8.1v55.6h8.1zm-21.4 7.8v-71.1H259.4v71.1H462zm-216-3.1v-65.1l-24.6 9.5V291l24.6 9.5zm-37.9-11.6v-41.7h-41.4v41.7h41.4zm-54.8-4.6v-32.6c-33.1.7-66 6.1-98 16.3 32 10.2 64.8 15.6 98 16.3z" stroke="#000" stroke-width=".75" stroke-miterlimit="10"/><path class="prefix__st2" d="M259.4 232.4H462v71.1H259.4zM474.1 240.2h10.3v55.6h-10.3zM166.9 247.1h41.3v41.7h-41.3zM153.3 251.7v32.6s-60.8 1-98-16.3c37.2-16.3 98-16.3 98-16.3zM246 235.4l-24.6 9.5V291l24.6 9.5z"/></svg>