<svg version="1.1" id="prefix__Layer_1" xmlns="http://www.w3.org/2000/svg" x="0" y="0" viewBox="0 0 612 792" xml:space="preserve" width="612px" height="792px"><style>.prefix__st0{fill:#060403}.prefix__st1{fill:#fd9b8f}.prefix__st2{fill:#fc4b34}.prefix__st3{fill:#f0d17c}</style><g id="prefix__Layer_2_1_"><g id="prefix__Layer_1-2"><path class="prefix__st0" d="M369.4 792c4.5-.5 9-1.1 13.4-1.6 2.9-.3 5.9-.4 8.8-.9 7.2-1.2 10.3-4.9 9.6-12.2-1.4-13.8-2.9-27.6-4.3-41.4-2.7-25.5-5.4-51-8-76.5-1.4-13.1-2.6-26.2-3.9-39.3-.2-2.3-.4-4.7-.5-7.1 31.2 6.5 53.6-7.7 72.1-28.8 6 .7 11.3 2.2 16.6 1.8 8.9-.6 15.5-6.1 20.9-12.8 9.1-11.3 13.6-24.7 16.8-38.5 6-25.7 6-51.8 3.8-77.8-1-11.6 2.3-22.2 4.3-33.1 11.1-60.8 12-121.4-3.8-181.7-7.6-29.1-19.9-56.9-36.4-82-11.9-18.1-27.7-31.2-49.4-35.6-8.1-1.6-16.6-1.5-25.5-2.1-2.6-11.5-5.4-23.8-8.3-36.7 2.1 0 4.1-.4 5.9.1 1.4.6 2.6 1.6 3.4 2.9.7 1 .5 2.7 1.3 3.5 1.3 1.2 3.3 2.9 4.7 2.7 1.9-.6 3.4-2.1 4-4 1.6-6.2-5.3-15.4-11.6-15.8-3.6-.3-7.3 0-10.7 0-3.2-6.8-5.9-13.9-9.6-20.4C367.6 27.8 345.8 9 315.2 2.2c-40.3-9-74.7 11.8-87.1 52-2 6.5-3.1 13.3-4.3 20.1-.4 2.1-1.1 3.1-3.3 3.5-10.1 1.8-13.4 6-12.6 16.2.8 12.3 6 23.9 14.7 32.6 1.4 1.5 2.3 3.4 3.8 5.7-12.5 3.6-23.3 8.4-33 15.5-31 23-45.4 53.6-43 92.3 1.1 16.9 7.5 32.3 12.4 48.2 4.5 14.7 8.5 29.5 12.5 44.4.5 2.6.3 5.2-.6 7.7-10.5 36-25.9 70-43.9 102.7-11.6 20.9-23.9 41.4-36 62.1-4.9 8.3-8.4 17-9.3 26.7-.8 7 .4 14.1 3.4 20.5 5.8 12.1 17.9 17.4 31.3 13.9s23.8-12.1 33.2-21.9c2.6-2.7 5-5.6 7.6-8.4 14.8 40.3 45.7 56.1 86.6 58 .6 24.4.8 49.2 1.8 73.9 1.1 24.7 3 49.4 4.6 74.6-3.3-.3-7.2-.6-11.2-1.1-12.3-1.5-24.3 0-36.3 2.8-7.8 1.8-12 6.7-11.8 14.6 0 6.2.7 12.3 2.2 18.3 2.1 8.3 9.1 11.7 16.8 12.4 12 1.1 24.1 1.7 36.1 1.6 13.7-.1 27.5-.9 41.2-1.6 6.7-.3 12.3-2.6 14.2-11 4.8 9.9 12.9 11.9 21.7 12.6 2.5.2 5 .7 7.6 1.1l34.9-.2zM358.6 81.2c-2.1 1.3-3.4.7-4.8-1.3-2.4-3.6-6.4-5.7-10.8-5.7-16.4.2-32.8.4-49.1 1.1-5.4.2-10.3 2.4-13.1 7.8-.4.8-4.4 1.1-4.9.3-4-6.2-9.9-7.3-16.5-7.2-8.8.1-17.5 0-26.4 0-.1-1.3-.1-2.6 0-3.9.8-4.5 1.4-9.1 2.6-13.6 9.2-35.2 37.7-54.2 73.4-48.5 26.8 4.3 47.2 19 63 40.6 5.7 7.8 10.3 16.3 13.7 25.3l-7 1.1-20.1 4zm39 43.2c-1.4.6-2 .9-2.7 1.1-20.3 5.9-35.8 18.2-46.8 36.1-15 24.7-17.9 51.7-12.8 79.5 3 16.3 8.2 32.2 12.5 48.3 5.8 21.5 11.3 43 12.3 65.5.7 17.1-2.1 33.9-4.7 50.6-5.5 35.3-12 70.4-17.7 105.6-2.3 14.2-4.4 28.5-1.4 43 5.3 25.3 17 45.8 41.7 56.8 1.1.6 1.9 1.7 2.1 3 2.6 21.8 5.3 43.7 7.5 65.5 3.3 32.8 6.3 65.5 9.5 98.3.7 7.7.3 8.3-7.2 9.8-.7.2-1.4.3-2.1.3-19 .5-38.1 1.2-57.1 1.4-4.2 0-8.6-1.2-12.8-2.3-5.3-1.3-8.9-4.6-10.2-10.1-.9-3.9-2.2-7.8-3-11.8-2.2-11.6 2.4-18.5 13.8-20.7 5.2-1.1 10.5-1.7 15.8-1.8 8 .1 16.1 1 24.6 1.6-4.6-49.4-9.3-99.2-14-149.6-20.4 8.6-40.7 8-61 1.2-.2.5-.3 1-.4 1.6l3.6 40.2c1.6 17.9 3.3 35.7 4.7 53.6.6 6.7.5 13.5 1.1 20.2 2 21.5 4.3 42.9 6.3 64.4.9 9.8.6 10.8-9.1 11.3-22 1.1-44 1.4-65.9 1.4-5.7 0-11.6-2.1-17-4-2.5-.9-5.6-3.2-6.4-5.5-2.1-6.2-3.5-12.6-4.1-19-.5-6.5 3.3-11.3 9.6-13.1 5.6-1.6 11.5-3.1 17.3-3.2 11.3-.2 22.5.6 34.1 1.1-.5-7.6-1.1-16.1-1.6-24.6-1.6-27.3-3.5-54.8-4.6-82.2-.8-19.9-.6-39.8-1.1-59.7-.1-2.1-.8-4.2-2.2-5.9-9-10.8-15.1-22.9-17.2-36.8-2.8-19-1.9-38.1.5-57 4.2-32.9 9.5-65.7 14.3-98.5 3.4-23 7.3-46 6.7-69.4-.5-21.7-1.8-43.4-3.8-65-2.8-30.1-6.4-60.2-9.7-90.2-.7-6.2-1.4-12.3-2.1-18.8 10.2 2.1 17.7-1.7 24.3-8 8-7.7 12.7-17.3 14.7-28.2.4-2 .1-5 3.8-3.3.4 2.9.7 5.9 1.1 8.8 2.4 14.3 10.1 23.9 24.1 28.4 14.5 4.6 26.8 1.3 37-9.9 8.2-9 12.6-19.7 14.1-32.4 10.1-1.6 20.1-3.3 30.2-4.7 1.1-.2 3.3 1.1 3.6 2 2.8 11.3 5.3 23 7.8 35.1zm114.3 293.7l-.6-.1c-3.2-16.3-6.1-32.7-9.6-49-8.6-39.1-21.2-77.1-33.8-115.1-2.4-7.9-6.9-15.1-12.9-20.9-6.4-6-14-9.5-23-7.7-14.1 2.8-22.6 16.8-19.4 32.3 1.6 7.4 3.8 14.6 6 21.8 10 34.2 18.5 68.7 22.1 104.2 4.5 45.4 2.6 90.7-1.2 136.1-.7 8.5-1.6 17.1-1.5 25.6.2 13.1 4.5 24.9 15.1 35.1-7.3 6-13.7 12.4-21.1 17.2-18.9 12.1-38.7 13.5-58.2 1.3-14.9-9.3-23-23.6-28.2-40-6-18.9-3.6-37.7-.3-56.5 6.8-38.7 13.5-77.5 20.1-116.3 2.4-14.1 3-28.5 1.6-42.7-1.8-19.9-6.6-39.2-11.6-58.4-5-19.2-11.2-38.5-11.8-58.7-.8-22.9 2.9-44.7 15.7-64.2 16.5-25.3 44.8-36.8 71.5-28.9 19.8 5.9 33.3 19.5 43.6 36.7 27.6 46.3 40.2 96.8 43.1 150.2 1.2 23 .5 46-1.9 68.9-.9 9.7-2.4 19.4-3.7 29.1zm-266.3 165l-.3 1.4c-7.7-.7-15.6-.8-23.1-2.1-28.4-5-50.9-26.8-56.9-55.1-2.9-13.5-.2-26.8 1.7-40.1 4.9-34.5 10.2-69 15.1-103.5 2.2-15.2 3.1-30.6-.3-45.6-4.4-19.9-9.2-39.8-15.1-59.3-6.5-21.6-11.2-43.1-6.9-65.7 5.6-29.9 21.1-53 47.9-68 5.6-3.2 11.9-5.1 18.2-7.8 1.6 13.8 3.2 26.5 4.5 39.1 3.4 33.6 7.2 67.1 9.7 100.8 1.4 18.2.9 36.7.3 55-.4 11.1-2.7 22.2-4 33.4-3 27.7-6.2 55.4-8.7 83.2-2.3 25.7-4.1 51.4-5.6 77.1-1.3 21.2 6.8 39.1 21.1 54.4.8 1 1.6 1.9 2.4 2.8zm262.5-106.4c.3 21.3-2.5 42.6-8.4 63.1-3.2 10.9-6.9 21.6-14.5 30.5-7 8.2-16.3 9-24.4 2-2.5-2.3-4.7-4.8-6.5-7.7-7.9-12.1-10.8-25.4-9.2-39.7 1.1-9.6 2.4-19.2 3.4-28.8 3.9-37.4 3.4-75.1-1.4-112.4-5.2-41.5-15-82-27.8-121.8-1.2-3.7-1.9-7.6-2-11.5-.1-11.9 9.2-19.6 20.7-16.5 5.3 1.6 10.3 4.1 14.6 7.6 6.4 5 9.9 12.4 12.4 20.1 12.2 37.9 22.8 76.1 30.8 115.1 6.9 33.1 11.7 66.3 12.3 100zM343.2 605.4c4.3 45.9 8.5 91.2 12.6 135.7-9.8-.1-19.2-1.1-28.5-.1-9.7 1.1-21 .3-25.7 12.9-4.4-48.9-8.7-97.7-13.2-147.2 18.9 4.5 36.7 4.7 54.8-1.3zM177.6 351.9l.9.1c0 4.1.4 8.3-.1 12.4-3.4 28.9-6.9 57.8-10.6 86.7-2.5 19.2-5.8 38.2-7.8 57.4-1.6 15.1-1 15.3-11.3 26.5-7.8 8.6-16.1 16.8-27.1 21.5-10.3 4.4-19.1.8-23.1-9.6-.8-1.9-1.4-4-1.7-6-2.7-16.1.8-30.8 10.1-44.2 28.1-40.5 50.5-83.9 66-130.8 1.6-4.6 3.1-9.3 4.7-14z"/><path class="prefix__st1" d="M363.5 792z"/><path class="prefix__st2" d="M397.6 124.4c-2.5-12-5-23.8-7.7-35.5-.2-.9-2.4-2.2-3.6-2-10.1 1.4-20.1 3.2-30.2 4.7-1.5 12.7-5.9 23.4-14.1 32.4-10.2 11.2-22.5 14.5-37 9.9-14-4.4-21.8-14.1-24.1-28.4-.5-2.9-.8-5.8-1.1-8.8-3.7-1.7-3.4 1.3-3.8 3.3-2 10.9-6.7 20.5-14.7 28.2-6.5 6.3-14.1 10.2-24.3 8 .7 6.5 1.5 12.6 2.1 18.8 3.3 30.1 7 60.1 9.7 90.2 2 21.6 3.3 43.3 3.8 65 .6 23.3-3.3 46.4-6.7 69.4-4.9 32.8-10.1 65.6-14.3 98.5-2.4 18.9-3.3 38-.5 57 2.1 14 8.2 26.1 17.2 36.8 1.4 1.7 2.2 3.7 2.3 5.9.4 19.9.2 39.8 1.1 59.7 1.1 27.4 3 54.8 4.6 82.2.5 8.5 1.1 17 1.6 24.6-11.6-.4-22.8-1.2-34.1-1.1-5.8.1-11.6 1.6-17.3 3.2-6.3 1.8-10.2 6.6-9.6 13.1.6 6.5 2 12.9 4.1 19.1.8 2.3 3.8 4.7 6.4 5.5 5.5 1.9 11.3 4 17 4 22 0 44-.4 65.9-1.4 9.7-.5 10-1.5 9.1-11.3-2-21.5-4.3-42.9-6.3-64.4-.6-6.7-.5-13.5-1.1-20.2-1.5-17.9-3.2-35.8-4.7-53.6l-3.6-40.2c.1-.5.2-1.1.4-1.6 20.3 6.9 40.6 7.5 61-1.2 4.7 50.4 9.4 100.3 14 149.6-8.5-.6-16.5-1.5-24.6-1.6-5.3.1-10.6.7-15.8 1.8-11.5 2.2-16 9.2-13.8 20.7.8 4 2.1 7.8 3 11.8 1.3 5.5 4.9 8.8 10.2 10.1 4.2 1.1 8.5 2.4 12.8 2.3 19-.2 38.1-.9 57.1-1.4.7 0 1.4-.1 2.1-.3 7.5-1.6 7.9-2.2 7.2-9.8-3.2-32.8-6.1-65.6-9.5-98.3-2.2-21.9-4.9-43.7-7.5-65.5-.2-1.3-1-2.3-2.1-3-24.7-11-36.4-31.5-41.7-56.8-3-14.5-1-28.8 1.4-43 5.8-35.2 12.2-70.4 17.7-105.6 2.6-16.7 5.4-33.5 4.7-50.6-.9-22.4-6.4-44-12.3-65.5-4.3-16.1-9.5-32-12.5-48.3-5.1-27.8-2.3-54.8 12.8-79.5 10.9-17.9 26.4-30.2 46.8-36.1.6.1 1.2-.2 2.5-.8zm-99.7 33.9c-2.2 6.2-11.6 10.3-20.3 9.7-6.8-.5-11-2.8-12.2-7.3 11.8 8.7 22.1 3.4 32.5-2.4z"/><path class="prefix__st3" d="M511.9 418.1c1.3-9.7 2.8-19.4 3.7-29.1 2.4-22.9 3.1-45.9 1.9-68.9-2.9-53.4-15.5-103.9-43.1-150.2-10.3-17.2-23.8-30.9-43.6-36.7-26.7-7.9-55 3.6-71.5 28.9-12.7 19.6-16.4 41.3-15.7 64.2.7 20.3 6.8 39.4 11.8 58.7 5 19.4 9.8 38.5 11.6 58.4 1.3 14.3.8 28.6-1.6 42.7-6.6 38.8-13.3 77.5-20.1 116.3-3.3 18.9-5.6 37.7.3 56.5 5.2 16.4 13.3 30.7 28.2 40 19.5 12.2 39.2 10.8 58.2-1.3 7.4-4.8 13.8-11.2 21.1-17.2-10.6-10.2-14.9-22-15.1-35.1-.1-8.5.7-17.1 1.5-25.6 3.8-45.3 5.7-90.7 1.2-136.1-3.5-35.5-12.1-70-22.1-104.2-2.1-7.2-4.4-14.5-6-21.8-3.3-15.5 5.3-29.5 19.4-32.3 9-1.8 16.5 1.7 23 7.7 6 5.8 10.4 13 12.9 20.9 12.5 38 25.2 75.9 33.8 115.1 3.6 16.3 6.4 32.7 9.6 49l.6.1zM245.6 583.1c-.8-.9-1.6-1.9-2.4-2.7-14.3-15.3-22.4-33.2-21.1-54.4 1.6-25.7 3.3-51.5 5.6-77.1 2.5-27.8 5.7-55.4 8.7-83.2 1.2-11.1 3.6-22.2 4-33.4.6-18.3 1.1-36.7-.3-55-2.5-33.7-6.3-67.2-9.7-100.8-1.3-12.7-2.9-25.3-4.5-39.1-6.3 2.7-12.6 4.7-18.2 7.8-26.8 15-42.3 38.1-47.9 68-4.2 22.6.4 44.1 6.9 65.7 5.9 19.5 10.7 39.4 15.1 59.3 3.3 15 2.4 30.4.3 45.6-4.9 34.5-10.3 69-15.1 103.5-1.9 13.3-4.6 26.6-1.7 40.1 6 28.2 28.4 50 56.8 55 7.6 1.4 15.4 1.5 23.1 2.1l.4-1.4z"/><path class="prefix__st2" d="M508.1 476.7c-.6-33.7-5.4-66.9-12.1-99.9-7.9-39-18.6-77.2-30.8-115.1-2.5-7.7-5.9-15.1-12.4-20.1-4.3-3.5-9.3-6-14.6-7.6-11.5-3.1-20.8 4.6-20.7 16.5.1 3.9.8 7.8 2 11.5 12.8 39.8 22.6 80.3 27.8 121.8 4.8 37.3 5.2 75 1.4 112.4-1.1 9.6-2.3 19.2-3.4 28.8-1.6 14.3 1.2 27.6 9.2 39.7 1.8 2.8 4 5.4 6.5 7.6 8.1 7 17.4 6.2 24.4-2 7.6-8.8 11.3-19.6 14.5-30.5 5.7-20.5 8.5-41.8 8.2-63.1zM177.6 351.9c-1.6 4.7-3.1 9.4-4.7 14.1-15.6 46.8-37.9 90.3-66 130.8-9.3 13.4-12.8 28.1-10.1 44.2.4 2.1 1 4.1 1.7 6 4.1 10.4 12.8 14 23.1 9.6 11.1-4.7 19.3-12.9 27.1-21.6 10.3-11.3 9.6-11.4 11.3-26.5 2.1-19.2 5.4-38.3 7.8-57.4 3.7-28.9 7.2-57.8 10.6-86.7.5-4.1.1-8.3.1-12.4l-.9-.1zM378.7 77.2l7-1.1c-3.3-9-7.9-17.6-13.7-25.3-15.8-21.5-36.2-36.2-62.9-40.5-35.7-5.7-64.2 13.3-73.4 48.5-1.2 4.4-1.8 9-2.6 13.6-.1 1.3-.1 2.6 0 3.9 8.9 0 17.7.1 26.4 0 6.6 0 12.5 1.1 16.5 7.2.5.7 4.5.5 4.9-.3 2.8-5.5 7.7-7.6 13.1-7.9 16.4-.7 32.7-.9 49.1-1.1 4.3 0 8.3 2.1 10.8 5.7 1.4 2 2.7 2.6 4.8 1.3-4.1-6.2-7.6-12.8-12.3-18.4-7-8.4-16.4-13.2-26.8-16.5-3.9-1.2-7.2-3.2-7.5-7.9-.3-5.9 4.3-10.9 10.2-11.2 1 0 1.9 0 2.9.3 17.9 4.1 33.3 12.2 43.9 27.7 4.5 6.7 9 13.6 9.6 22z"/><path class="prefix__st1" d="M378.7 77.2c-.6-8.4-5-15.3-9.6-22-10.6-15.5-26-23.6-43.9-27.7-5.8-1.3-11.5 2.2-12.9 8-.2.9-.3 1.9-.3 2.9.2 4.7 3.6 6.7 7.5 7.9 10.3 3.3 19.8 8.1 26.8 16.5 4.7 5.6 8.3 12.2 12.3 18.4l20.1-4z"/><path class="prefix__st0" d="M297.9 158.3c-10.4 5.8-20.8 11.1-32.5 2.4 1.1 4.5 5.4 6.8 12.2 7.3 8.8.6 18.1-3.5 20.3-9.7z"/></g></g></svg>